<?xml version="1.0" standalone="no"?>
<!DOCTYPE svg PUBLIC "-//W3C//DTD SVG 20010904//EN"
 "http://www.w3.org/TR/2001/REC-SVG-20010904/DTD/svg10.dtd">
<svg version="1.0" xmlns="http://www.w3.org/2000/svg"
 width="192.000000pt" height="192.000000pt" viewBox="0 0 192.000000 192.000000"
 preserveAspectRatio="xMidYMid meet">
<metadata>
Created by potrace 1.14, written by Peter Selinger 2001-2017
</metadata>
<g transform="translate(0.000000,192.000000) scale(0.100000,-0.100000)"
fill="#000000" stroke="none">
<path d="M474 1725 c-3 -6 -3 -107 -2 -225 l3 -215 60 0 60 0 5 170 5 171 383
0 382 1 1 -26 c0 -14 0 -91 0 -171 l-1 -145 67 0 66 0 0 225 0 224 -513 0
c-341 1 -514 -2 -516 -9z"/>
<path d="M899 1574 c-24 -8 -61 -27 -82 -45 -73 -61 -95 -137 -91 -324 2 -114
5 -137 27 -185 30 -68 69 -105 133 -129 52 -19 129 -21 175 -3 23 9 28 7 49
-29 26 -41 38 -47 83 -41 35 5 34 17 -7 79 l-34 51 19 29 c35 51 51 128 51
241 0 136 -7 184 -38 244 -50 98 -170 145 -285 112z m161 -106 c57 -39 72 -83
75 -218 2 -170 -17 -230 -87 -266 -95 -49 -205 4 -229 111 -18 82 -8 273 17
316 46 78 153 105 224 57z"/>
<path d="M470 877 l0 -253 515 0 c345 0 515 4 516 11 1 13 1 444 0 473 -1 20
-6 22 -65 22 l-64 0 -1 -157 c0 -87 0 -168 0 -180 l-1 -23 -385 0 -385 0 0
180 0 180 -65 0 -65 0 0 -253z"/>
<path d="M583 530 c-46 -30 -66 -81 -68 -176 -4 -153 46 -220 157 -212 48 4
59 1 63 -13 6 -18 52 -32 61 -18 3 5 -4 22 -15 38 -20 28 -20 28 -1 66 16 31
19 56 17 134 -2 60 -8 107 -17 126 -34 67 -134 95 -197 55z m138 -62 c27 -28
28 -32 26 -129 -2 -97 -3 -102 -30 -125 -37 -32 -86 -32 -121 1 -14 13 -27 34
-27 47 -9 150 -5 180 27 212 36 35 89 33 125 -6z"/>
<path d="M882 541 c-5 -3 -9 -92 -9 -198 0 -161 3 -193 15 -198 26 -10 34 10
35 86 l2 74 42 1 42 1 42 -83 c32 -63 46 -83 60 -81 10 2 21 6 24 9 4 3 -12
42 -34 86 -38 75 -39 81 -22 87 31 9 54 55 53 102 0 52 -23 90 -60 104 -30 12
-175 19 -190 10z m177 -60 c11 -7 21 -19 22 -29 0 -9 2 -24 4 -33 8 -40 -43
-67 -119 -61 l-44 4 0 61 c0 34 5 65 10 68 14 9 103 2 127 -10z"/>
<path d="M1210 540 c-5 -3 -8 -14 -6 -25 3 -18 11 -20 87 -20 46 0 89 -3 94
-7 11 -7 11 -201 0 -245 -8 -35 -32 -52 -73 -53 -35 0 -82 36 -82 63 0 15 -34
29 -44 19 -10 -9 -7 -33 10 -67 34 -72 153 -88 212 -29 28 28 38 89 36 222 -1
73 -4 136 -8 140 -9 8 -214 10 -226 2z"/>
</g>
</svg>
