<svg preserveAspectRatio="xMidYMid meet" viewBox="307.20000000000005 110.0826624 777.1944959999998 835.565568" xmlns="http://www.w3.org/2000/svg" version="1.0" style="max-height: 500px" width="177.1944959999998" height="135.565568">
<g stroke="none" fill="#1685b3" transform="translate(0.000000,1536.000000) scale(0.100000,-0.100000)">
<path d="M3330 13977 c-3 -125 1 -3031 4 -3034 7 -8 830 -3 838 5 4 4 9 530&#10;10 1170 l3 1162 28 27 27 28 2668 2 c2105 2 2672 0 2691 -10 13 -6 34 -25 45&#10;-40 l21 -28 2 -1152 3 -1152 47 -7 c27 -3 211 -7 410 -7 348 -1 363 0 373 18&#10;7 13 10 502 10 1510 l0 1490 -22 15 c-20 15 -375 16 -3590 16 -2839 0 -3568&#10;-3 -3568 -13z"/>
<path d="M6640 12933 c-105 -6 -234 -24 -258 -37 -15 -8 -63 -24 -107 -36 -44&#10;-12 -89 -28 -101 -35 -11 -7 -41 -19 -65 -25 -24 -6 -55 -22 -69 -35 -14 -12&#10;-43 -28 -65 -35 -21 -7 -74 -41 -116 -76 -42 -35 -85 -67 -96 -71 -11 -5 -64&#10;-56 -118 -115 -53 -60 -101 -108 -106 -108 -5 0 -20 -21 -33 -47 -13 -27 -36&#10;-59 -50 -72 -14 -14 -26 -32 -26 -41 0 -10 -8 -28 -19 -41 -24 -32 -121 -231&#10;-121 -250 0 -8 -15 -46 -33 -84 -22 -44 -36 -92 -39 -130 -4 -33 -18 -96 -33&#10;-140 -23 -69 -28 -106 -36 -280 -13 -255 -17 -1185 -6 -1460 9 -230 16 -282&#10;46 -365 11 -30 24 -93 29 -140 7 -64 15 -94 35 -123 14 -21 30 -59 36 -86 9&#10;-41 83 -201 110 -236 4 -5 16 -30 25 -54 9 -24 28 -52 40 -62 13 -10 31 -37&#10;40 -58 8 -22 41 -66 71 -98 31 -32 80 -83 108 -113 29 -30 71 -66 94 -80 23&#10;-14 62 -43 85 -66 24 -22 66 -52 93 -66 28 -13 86 -43 130 -67 44 -23 105 -49&#10;135 -57 30 -9 93 -28 140 -44 72 -24 114 -30 275 -40 105 -7 237 -10 295 -6&#10;273 17 326 23 365 44 22 11 67 25 100 32 33 8 78 23 100 36 22 12 61 26 87 29&#10;42 6 49 4 70 -18 62 -68 140 -177 167 -234 11 -24 24 -43 29 -43 5 0 20 -21&#10;33 -47 32 -65 88 -128 146 -166 l48 -32 190 0 190 0 39 29 c35 27 38 33 33 68&#10;-3 20 -15 51 -26 67 -12 17 -27 45 -33 63 -6 18 -23 44 -38 58 -14 14 -48 61&#10;-75 105 -27 44 -55 86 -61 92 -7 7 -18 30 -25 50 -6 21 -26 50 -45 66 -18 15&#10;-35 40 -39 56 -3 16 -21 45 -38 64 -51 55 -80 109 -85 157 -4 48 6 66 90 150&#10;14 14 33 42 41 61 8 19 26 47 41 62 14 15 29 40 32 55 4 15 19 48 35 73 16 25&#10;29 50 29 55 0 5 16 40 35 78 19 39 35 80 35 93 0 32 29 114 51 142 12 15 19&#10;40 19 70 0 68 25 224 41 252 16 29 25 327 27 849 2 499 -11 886 -31 931 -9 19&#10;-23 95 -31 167 -12 103 -21 142 -40 175 -13 23 -31 69 -39 102 -9 33 -29 86&#10;-46 119 -17 32 -31 66 -31 76 0 10 -11 31 -23 47 -13 15 -29 43 -35 62 -12 34&#10;-43 81 -115 169 -20 26 -49 62 -65 81 -86 108 -294 286 -377 322 -23 10 -52&#10;27 -66 37 -13 11 -42 25 -64 32 -22 7 -56 22 -75 35 -19 13 -66 29 -105 36&#10;-38 7 -89 23 -112 35 -32 16 -68 24 -145 29 -106 7 -418 12 -498 8z m255 -549&#10;c80 0 140 -6 180 -17 32 -9 78 -17 101 -17 25 0 51 -7 65 -19 13 -10 51 -27&#10;84 -37 33 -10 79 -30 103 -46 24 -15 56 -35 72 -43 25 -13 88 -68 184 -162 15&#10;-15 43 -52 62 -80 19 -29 38 -53 43 -53 5 0 14 -14 21 -31 7 -17 23 -45 34&#10;-63 30 -44 111 -278 125 -361 20 -114 29 -166 41 -240 15 -99 24 -1016 11&#10;-1245 -14 -254 -52 -496 -95 -603 -13 -34 -32 -86 -42 -115 -9 -29 -23 -59&#10;-30 -67 -8 -8 -23 -33 -34 -57 -41 -89 -238 -300 -315 -338 -17 -8 -41 -24&#10;-55 -36 -31 -28 -170 -89 -235 -104 -28 -7 -86 -21 -130 -33 -68 -19 -107 -22&#10;-255 -22 -155 0 -183 3 -249 23 -41 13 -99 28 -129 32 -54 9 -215 80 -228 101&#10;-3 6 -25 19 -48 28 -23 10 -52 30 -66 45 -14 15 -36 35 -50 44 -51 33 -172&#10;175 -195 228 -13 30 -28 54 -34 54 -5 0 -17 24 -26 53 -10 28 -28 71 -41 94&#10;-13 23 -31 72 -39 110 -8 37 -24 93 -36 123 -19 49 -22 87 -31 360 -6 171 -7&#10;555 -4 873 7 583 12 662 50 735 8 15 17 50 21 77 4 28 20 75 35 105 15 30 35&#10;79 45 108 9 29 23 56 31 59 7 3 25 30 39 60 32 71 230 269 309 310 30 15 81&#10;41 113 57 32 16 75 38 96 48 21 11 70 24 110 30 77 10 176 34 186 44 3 3 24 2&#10;46 -3 22 -4 94 -8 160 -9z"/>
<path d="M3363 9763 c-18 -2 -33 -7 -33 -11 -4 -246 1 -3456 5 -3462 4 -6&#10;1301 -10 3556 -10 3801 0 3594 -3 3613 45 3 9 6 784 6 1721 l0 1704 -27 11&#10;c-33 12 -768 8 -795 -5 -17 -8 -18 -76 -18 -1238 l0 -1230 -29 -29 c-25 -25&#10;-38 -29 -83 -30 -29 0 -1240 0 -2690 0 -2101 0 -2641 2 -2657 12 -11 7 -22 22&#10;-25 34 -3 11 -6 572 -6 1248 l0 1227 -26 10 c-24 10 -719 12 -791 3z"/>
<path d="M4551 5671 c-30 -4 -56 -12 -59 -19 -5 -17 -62 -39 -119 -47 -79 -11&#10;-148 -34 -173 -57 -15 -15 -34 -21 -52 -19 -21 2 -35 -6 -58 -30 -16 -19 -30&#10;-37 -30 -40 0 -4 -23 -21 -50 -38 -28 -17 -65 -52 -83 -78 -17 -26 -42 -58&#10;-54 -71 -13 -12 -23 -27 -23 -32 0 -5 -13 -31 -29 -57 -15 -27 -34 -70 -40&#10;-97 -7 -27 -21 -66 -31 -87 -11 -21 -20 -45 -20 -54 0 -9 -7 -27 -17 -41 -10&#10;-15 -16 -44 -15 -72 10 -443 12 -954 3 -1030 -12 -106 1 -163 51 -239 24 -35&#10;27 -48 22 -82 -6 -36 -3 -45 24 -76 18 -19 43 -59 57 -89 14 -30 32 -57 40&#10;-60 8 -3 15 -13 15 -21 0 -23 109 -135 131 -135 10 0 21 -9 24 -20 3 -11 16&#10;-25 28 -32 12 -6 41 -27 65 -46 43 -35 61 -41 203 -66 47 -8 87 -21 104 -34&#10;25 -20 40 -22 146 -22 105 0 121 2 139 20 11 11 39 22 62 26 24 3 64 14 89 24&#10;38 16 56 18 107 10 126 -18 144 -32 217 -175 40 -78 87 -104 191 -105 68 0 72&#10;1 76 24 3 13 -4 38 -16 58 -53 87 -83 133 -108 165 -16 20 -28 41 -28 46 0 6&#10;-12 24 -27 39 -22 23 -28 40 -31 91 -4 59 -2 64 32 107 20 25 36 53 36 62 0 9&#10;16 34 35 55 22 23 35 48 35 65 0 14 16 59 35 100 31 67 34 83 36 171 1 75 6&#10;105 21 133 18 34 20 60 21 383 2 383 -5 554 -24 577 -7 9 -14 53 -17 102 -2&#10;48 -11 107 -19 132 -59 172 -137 305 -238 405 -57 57 -146 125 -163 125 -4 0&#10;-25 12 -47 27 -37 25 -86 40 -150 47 -16 2 -42 8 -56 14 -15 6 -29 9 -32 6 -2&#10;-3 -24 8 -48 25 -49 33 -106 42 -188 32z m199 -247 c73 -7 134 -30 175 -64 11&#10;-10 38 -23 59 -30 48 -16 125 -85 176 -160 21 -30 50 -66 64 -79 18 -17 26&#10;-35 27 -60 0 -21 13 -57 30 -86 48 -83 51 -95 44 -165 -4 -36 -6 -94 -4 -130&#10;5 -84 5 -666 0 -745 -2 -33 0 -92 4 -132 8 -79 0 -113 -41 -169 -13 -18 -26&#10;-51 -30 -74 -4 -22 -17 -55 -30 -73 -12 -18 -35 -52 -50 -77 -35 -57 -116&#10;-133 -174 -162 -25 -13 -59 -36 -77 -51 -23 -22 -43 -30 -80 -33 -26 -2 -77&#10;-11 -113 -19 -75 -19 -182 -16 -305 9 -86 17 -158 51 -216 100 -20 17 -57 47&#10;-82 66 -26 19 -60 55 -76 80 -66 103 -111 190 -111 214 0 38 -29 118 -53 143&#10;-20 22 -20 32 -20 545 l0 523 33 49 c23 34 35 64 38 99 3 32 16 68 33 96 16&#10;26 38 64 50 86 31 58 207 225 237 225 13 0 35 9 48 19 34 27 105 49 189 60 71&#10;9 120 8 255 -5z"/>
<path d="M6256 5568 c-12 -20 -20 -115 -19 -223 2 -106 1 -1995 0 -2060 -2&#10;-44 0 -91 4 -105 3 -14 2 -40 -3 -59 -7 -22 -6 -37 1 -44 6 -6 11 -29 11 -52&#10;0 -23 5 -46 12 -53 15 -15 134 -16 143 -1 4 5 7 229 6 497 -1 269 3 505 8 526&#10;5 22 21 51 36 65 l25 26 283 3 c155 2 293 0 306 -3 31 -8 131 -103 131 -126 0&#10;-9 11 -31 25 -47 14 -17 25 -36 25 -45 0 -8 11 -31 25 -51 14 -20 25 -44 25&#10;-52 0 -9 15 -39 34 -67 19 -29 39 -71 45 -93 6 -23 17 -44 25 -47 7 -3 19 -26&#10;26 -52 7 -25 25 -63 40 -83 15 -21 30 -55 34 -75 4 -21 13 -40 21 -43 18 -7&#10;65 -101 65 -129 0 -12 9 -30 19 -39 11 -10 22 -30 26 -44 3 -15 17 -45 30 -67&#10;30 -52 106 -84 156 -66 18 6 45 11 60 11 16 0 29 1 29 3 0 1 -9 28 -20 60 -11&#10;31 -20 63 -20 71 0 8 -13 23 -30 33 -25 14 -30 24 -30 55 0 27 -8 46 -29 70&#10;-16 18 -33 49 -39 69 -5 20 -26 60 -46 89 -20 29 -36 58 -36 65 0 7 -26 64&#10;-58 128 -33 63 -65 130 -72 149 -8 18 -26 49 -41 69 -15 19 -31 48 -35 65 -4&#10;16 -15 40 -24 54 -10 14 -20 46 -24 72 -9 59 11 98 63 123 42 19 114 67 119&#10;78 2 4 9 7 16 7 14 0 146 133 146 147 0 4 14 16 31 26 28 16 31 21 27 59 -3&#10;37 0 45 32 74 l35 32 1 254 c2 256 -4 317 -35 353 -9 11 -23 38 -30 60 -19 56&#10;-88 154 -115 165 -13 4 -49 31 -80 58 -54 47 -111 72 -165 72 -11 0 -29 12&#10;-41 28 l-22 27 -559 3 -558 2 -15 -22z m999 -176 c29 -16 112 -42 136 -42 34&#10;0 119 -55 160 -105 5 -5 27 -32 49 -58 22 -27 40 -56 40 -65 0 -9 9 -32 20&#10;-50 11 -18 20 -40 20 -50 0 -9 10 -35 23 -57 18 -34 22 -54 21 -128 -1 -66 -5&#10;-92 -18 -105 -9 -10 -16 -24 -16 -30 0 -6 -11 -28 -25 -48 -15 -22 -25 -51&#10;-25 -72 0 -31 -10 -45 -83 -116 -99 -96 -161 -136 -211 -136 -20 0 -53 -7 -73&#10;-15 -19 -8 -48 -15 -64 -15 -17 0 -39 -10 -51 -22 -23 -23 -28 -23 -308 -26&#10;-352 -4 -411 3 -345 38 14 7 25 16 25 19 0 4 -22 14 -49 24 -39 14 -51 24 -60&#10;49 -15 42 -15 848 0 917 15 73 36 94 100 101 97 11 713 4 734 -8z"/>
<path d="M8574 5580 c-30 -12 -35 -22 -40 -83 -8 -98 -54 -91 634 -91 583 -1&#10;598 -1 632 -21 19 -12 45 -39 57 -60 l21 -40 1 -786 c1 -691 -1 -788 -14 -793&#10;-8 -3 -15 -17 -15 -31 0 -14 -7 -42 -15 -62 -8 -19 -15 -57 -15 -83 0 -30 -6&#10;-52 -15 -60 -8 -6 -17 -22 -21 -33 -3 -12 -16 -35 -28 -52 -12 -16 -28 -43&#10;-36 -58 -8 -16 -42 -51 -76 -78 -35 -27 -64 -53 -66 -57 -7 -16 -107 -52 -176&#10;-63 -40 -7 -75 -16 -78 -21 -9 -14 -186 -8 -249 8 -33 9 -71 17 -85 18 -14 2&#10;-33 4 -42 4 -9 1 -29 13 -45 26 -16 14 -42 28 -57 32 -16 4 -45 25 -65 46 -20&#10;22 -50 55 -68 73 -17 18 -43 55 -56 81 -14 27 -34 57 -45 67 -11 10 -24 37&#10;-30 60 -6 23 -16 63 -22 89 -17 64 -34 77 -113 82 -87 5 -97 -4 -97 -88 0 -55&#10;3 -65 28 -89 19 -18 29 -39 30 -60 4 -76 27 -146 53 -163 5 -3 20 -26 33 -52&#10;47 -93 287 -281 359 -282 17 -1 50 -7 72 -15 22 -8 49 -15 60 -15 11 0 42 -12&#10;69 -26 45 -24 55 -25 171 -22 104 2 126 6 144 22 21 19 56 28 173 44 32 5 65&#10;15 75 24 10 9 41 27 69 41 28 14 58 36 67 49 9 13 43 52 77 88 89 93 156 209&#10;163 283 3 32 11 64 17 71 5 8 8 21 4 30 -4 11 1 18 16 24 l21 8 0 999 c-1 894&#10;-3 1001 -17 1012 -19 14 -1426 17 -1460 3z"/>
</g>
</svg>